# xmcd
#
# Track frame offsets:
#	150
#	15064
#	28937
#	39260
#	56197
#	65270
#	75651
#	85872
#	96914
#	106962
#	119046
#	131932
#
# Disc length: 1933 seconds
#
# Revision: 2
# Processed by: cddbd v1.5.1PL2 Copyright (c) Steve Scherf et al.
# Submitted via: audiograbber 1.83.01
#
DISCID=9a078b0c
DTITLE=Juanita Family and Friends - Juanita Family and Friends
DYEAR=2004
DGENRE=Country
TTITLE0=Song of Mehitabel
TTITLE1=Come on Down
TTITLE2=Let's Get Drunk and Watch TV
TTITLE3=Burn Your House Down
TTITLE4=So Tired
TTITLE5=Cruel Hand of Fate
TTITLE6=You Look Like Trouble
TTITLE7=Cocaine Eyes
TTITLE8=WhatmIspostdo
TTITLE9=Love That Cannot Die
TTITLE10=Tell Me You Love Me
TTITLE11=Close My Eyes
EXTD=
EXTT0=
EXTT1=
EXTT2=
EXTT3=
EXTT4=
EXTT5=
EXTT6=
EXTT7=
EXTT8=
EXTT9=
EXTT10=
EXTT11=
PLAYORDER=
